<svg xmlns="http://www.w3.org/2000/svg" xmlns:xlink="http://www.w3.org/1999/xlink" width="500" zoomAndPan="magnify" viewBox="0 0 375 374.999991" height="500" preserveAspectRatio="xMidYMid meet" version="1.0"><defs><g/><clipPath id="94e251ed6a"><path d="M 18.75 18.75 L 356.25 18.75 L 356.25 356.25 L 18.75 356.25 Z M 18.75 18.75 " clip-rule="nonzero"/></clipPath><clipPath id="519e219ded"><path d="M 187.5 18.75 C 94.300781 18.75 18.75 94.300781 18.75 187.5 C 18.75 280.699219 94.300781 356.25 187.5 356.25 C 280.699219 356.25 356.25 280.699219 356.25 187.5 C 356.25 94.300781 280.699219 18.75 187.5 18.75 Z M 187.5 18.75 " clip-rule="nonzero"/></clipPath><radialGradient gradientTransform="matrix(1, 0, 0, 1, 18.750004, 18.75)" gradientUnits="userSpaceOnUse" r="477.2975" cx="0" id="4b31034b12" cy="0" fx="0" fy="0"><stop stop-opacity="1" stop-color="rgb(45.098877%, 60.246277%, 74.499512%)" offset="0"/><stop stop-opacity="1" stop-color="rgb(45.098877%, 59.959412%, 74.499512%)" offset="0.03125"/><stop stop-opacity="1" stop-color="rgb(45.098877%, 59.690857%, 74.499512%)" offset="0.0585938"/><stop stop-opacity="1" stop-color="rgb(45.098877%, 59.422302%, 74.499512%)" offset="0.0859375"/><stop stop-opacity="1" stop-color="rgb(45.098877%, 59.155273%, 74.499512%)" offset="0.113281"/><stop stop-opacity="1" stop-color="rgb(45.098877%, 58.906555%, 74.499512%)" offset="0.140625"/><stop stop-opacity="1" stop-color="rgb(45.098877%, 58.676147%, 74.499512%)" offset="0.164062"/><stop stop-opacity="1" stop-color="rgb(45.098877%, 58.44574%, 74.499512%)" offset="0.1875"/><stop stop-opacity="1" stop-color="rgb(45.098877%, 58.216858%, 74.499512%)" offset="0.210938"/><stop stop-opacity="1" stop-color="rgb(45.098877%, 57.98645%, 74.499512%)" offset="0.234375"/><stop stop-opacity="1" stop-color="rgb(45.098877%, 57.775879%, 74.499512%)" offset="0.257812"/><stop stop-opacity="1" stop-color="rgb(45.098877%, 57.585144%, 74.499512%)" offset="0.277344"/><stop stop-opacity="1" stop-color="rgb(45.098877%, 57.394409%, 74.499512%)" offset="0.296875"/><stop stop-opacity="1" stop-color="rgb(45.098877%, 57.106018%, 74.499512%)" offset="0.316406"/><stop stop-opacity="1" stop-color="rgb(45.098877%, 56.723022%, 74.499512%)" offset="0.355469"/><stop stop-opacity="1" stop-color="rgb(45.098877%, 56.359863%, 74.499512%)" offset="0.394531"/><stop stop-opacity="1" stop-color="rgb(45.098877%, 56.016541%, 74.499512%)" offset="0.429688"/><stop stop-opacity="1" stop-color="rgb(45.098877%, 55.690002%, 74.499512%)" offset="0.464844"/><stop stop-opacity="1" stop-color="rgb(45.098877%, 55.383301%, 74.499512%)" offset="0.496094"/><stop stop-opacity="1" stop-color="rgb(45.098877%, 55.096436%, 74.499512%)" offset="0.527344"/><stop stop-opacity="1" stop-color="rgb(45.098877%, 54.829407%, 74.499512%)" offset="0.554688"/><stop stop-opacity="1" stop-color="rgb(45.098877%, 54.580688%, 74.499512%)" offset="0.582031"/><stop stop-opacity="1" stop-color="rgb(45.098877%, 54.350281%, 74.499512%)" offset="0.605469"/><stop stop-opacity="1" stop-color="rgb(45.098877%, 54.139709%, 74.499512%)" offset="0.628906"/><stop stop-opacity="1" stop-color="rgb(45.098877%, 53.948975%, 74.499512%)" offset="0.648438"/><stop stop-opacity="1" stop-color="rgb(45.098877%, 53.660583%, 74.499512%)" offset="0.667969"/><stop stop-opacity="1" stop-color="rgb(45.098877%, 53.297424%, 74.499512%)" offset="0.707031"/><stop stop-opacity="1" stop-color="rgb(45.098877%, 52.972412%, 74.499512%)" offset="0.742188"/><stop stop-opacity="1" stop-color="rgb(45.098877%, 52.685547%, 74.499512%)" offset="0.773438"/><stop stop-opacity="1" stop-color="rgb(45.098877%, 52.436829%, 74.499512%)" offset="0.800781"/><stop stop-opacity="1" stop-color="rgb(45.098877%, 52.226257%, 74.499512%)" offset="0.824219"/><stop stop-opacity="1" stop-color="rgb(45.098877%, 51.937866%, 74.499512%)" offset="0.84375"/><stop stop-opacity="1" stop-color="rgb(45.098877%, 51.612854%, 74.499512%)" offset="0.882812"/><stop stop-opacity="1" stop-color="rgb(45.098877%, 51.383972%, 74.499512%)" offset="0.910156"/><stop stop-opacity="1" stop-color="rgb(45.098877%, 51.115417%, 74.499512%)" offset="0.929688"/><stop stop-opacity="1" stop-color="rgb(45.098877%, 50.772095%, 74.499512%)" offset="0.964844"/><stop stop-opacity="1" stop-color="rgb(45.098877%, 50.59967%, 74.499512%)" offset="1"/></radialGradient></defs><g clip-path="url(#94e251ed6a)"><g clip-path="url(#519e219ded)"><path fill="url(#4b31034b12)" d="M 18.75 18.75 L 18.75 356.25 L 356.25 356.25 L 356.25 18.75 Z M 18.75 18.75 " fill-rule="nonzero"/></g></g><g fill="#000000" fill-opacity="1"><g transform="translate(104.491542, 286.499981)"><g><path d="M 20.453125 -192.71875 C 21.335938 -192.9375 23.648438 -192.71875 27.390625 -192.0625 C 33.992188 -190.738281 39.328125 -189.363281 43.390625 -187.9375 C 47.460938 -186.507812 50.488281 -185.023438 52.46875 -183.484375 L 53.796875 -182.484375 L 56.09375 -183.484375 C 59.832031 -185.242188 63.679688 -186.394531 67.640625 -186.9375 C 71.609375 -187.488281 75.679688 -187.765625 79.859375 -187.765625 C 84.921875 -187.765625 90.363281 -187.378906 96.1875 -186.609375 C 102.019531 -185.835938 107.140625 -184.132812 111.546875 -181.5 C 120.785156 -176.4375 127.546875 -169.285156 131.828125 -160.046875 C 136.117188 -150.804688 138.265625 -141.128906 138.265625 -131.015625 C 138.265625 -121.546875 137.164062 -113.289062 134.96875 -106.25 C 132.769531 -99.21875 128.8125 -92.070312 123.09375 -84.8125 C 120.445312 -81.726562 117.800781 -79.085938 115.15625 -76.890625 C 112.519531 -74.691406 109.664062 -73.039062 106.59375 -71.9375 C 105.488281 -71.71875 104.71875 -71.390625 104.28125 -70.953125 C 106.039062 -68.523438 107.691406 -66.101562 109.234375 -63.6875 C 110.546875 -61.488281 112.023438 -59.289062 113.671875 -57.09375 C 115.328125 -54.894531 116.707031 -52.914062 117.8125 -51.15625 C 123.75 -43.445312 130.347656 -36.898438 137.609375 -31.515625 C 144.867188 -26.128906 153.335938 -22.222656 163.015625 -19.796875 C 166.753906 -18.703125 168.625 -17.710938 168.625 -16.828125 C 168.625 -15.953125 168.019531 -14.46875 166.8125 -12.375 C 165.601562 -10.28125 164.117188 -8.242188 162.359375 -6.265625 C 160.597656 -4.285156 158.835938 -2.46875 157.078125 -0.8125 C 155.316406 0.832031 153.890625 1.765625 152.796875 1.984375 C 151.910156 2.421875 147.617188 2.421875 139.921875 1.984375 C 136.179688 1.535156 133.046875 1.3125 130.515625 1.3125 C 127.984375 1.3125 126.164062 1.203125 125.0625 0.984375 C 119.34375 0.328125 115.71875 -0.769531 114.1875 -2.3125 C 113.082031 -3.40625 111.265625 -6.425781 108.734375 -11.375 C 106.203125 -16.332031 102.519531 -23.429688 97.6875 -32.671875 L 81.84375 -64.34375 L 79.859375 -67.65625 L 77.546875 -67.65625 C 69.628906 -67.65625 61.710938 -68.863281 53.796875 -71.28125 C 52.472656 -71.9375 51.703125 -72.265625 51.484375 -72.265625 C 51.265625 -72.265625 51.15625 -61.375 51.15625 -39.59375 L 51.15625 -6.265625 L 50.15625 -3.625 C 49.9375 -1.863281 49.390625 0.00390625 48.515625 1.984375 L 47.1875 3.625 L 45.546875 3.625 C 42.023438 3.40625 38.890625 3.078125 36.140625 2.640625 C 33.390625 2.203125 30.96875 1.429688 28.875 0.328125 C 26.78125 -0.765625 24.796875 -2.25 22.921875 -4.125 C 21.054688 -6 19.242188 -8.472656 17.484375 -11.546875 C 12.429688 -19.242188 9.90625 -23.644531 9.90625 -24.75 C 9.90625 -25.851562 11.773438 -26.625 15.515625 -27.0625 C 19.910156 -27.5 22.109375 -27.71875 22.109375 -27.71875 C 22.109375 -30.132812 22.109375 -33.101562 22.109375 -36.625 C 22.109375 -39.707031 22.160156 -43.445312 22.265625 -47.84375 C 22.378906 -52.25 22.4375 -57.421875 22.4375 -63.359375 C 22.4375 -75.460938 22.4375 -85.144531 22.4375 -92.40625 C 22.4375 -99.664062 22.328125 -104.613281 22.109375 -107.25 C 21.890625 -108.125 21.78125 -109.164062 21.78125 -110.375 C 21.78125 -111.59375 21.671875 -113.410156 21.453125 -115.828125 C 20.785156 -124.191406 20.453125 -132.441406 20.453125 -140.578125 C 20.453125 -142.117188 20.394531 -145.085938 20.28125 -149.484375 C 20.175781 -153.890625 20.066406 -158.398438 19.953125 -163.015625 C 19.847656 -167.640625 19.6875 -171.765625 19.46875 -175.390625 C 19.25 -179.023438 19.03125 -180.953125 18.8125 -181.171875 C 18.144531 -181.828125 17.316406 -182.925781 16.328125 -184.46875 C 15.335938 -186.007812 14.84375 -187.21875 14.84375 -188.09375 C 14.84375 -189.195312 15.503906 -190.1875 16.828125 -191.0625 C 18.148438 -191.945312 19.359375 -192.5 20.453125 -192.71875 Z M 84.8125 -164.015625 C 83.488281 -164.234375 81.34375 -164.34375 78.375 -164.34375 C 75.40625 -164.34375 73.257812 -164.34375 71.9375 -164.34375 C 68.195312 -163.90625 64.734375 -163.242188 61.546875 -162.359375 C 58.359375 -161.484375 55.332031 -160.050781 52.46875 -158.0625 L 50.15625 -156.421875 L 50.15625 -99.65625 C 51.257812 -98.5625 52.960938 -97.628906 55.265625 -96.859375 C 57.578125 -96.085938 60.050781 -95.425781 62.6875 -94.875 C 65.332031 -94.320312 67.921875 -93.9375 70.453125 -93.71875 C 72.984375 -93.5 75.019531 -93.390625 76.5625 -93.390625 C 84.476562 -93.390625 91.351562 -95.257812 97.1875 -99 C 103.019531 -102.738281 107.144531 -108.566406 109.5625 -116.484375 C 111.320312 -120.890625 112.09375 -125.785156 111.875 -131.171875 C 111.65625 -136.566406 110.882812 -141.023438 109.5625 -144.546875 C 108.238281 -148.054688 105.984375 -151.40625 102.796875 -154.59375 C 99.609375 -157.789062 96.472656 -160.269531 93.390625 -162.03125 C 92.066406 -162.6875 90.691406 -163.125 89.265625 -163.34375 C 87.835938 -163.570312 86.351562 -163.796875 84.8125 -164.015625 Z M 84.8125 -164.015625 "/></g></g></g></svg>